<svg width="322" height="266" viewBox="0 0 322 266" fill="none" xmlns="http://www.w3.org/2000/svg">
<path d="M261.503 255.885C262.386 254.632 263.78 253.332 264.57 253.007C265.36 252.682 266.661 252.404 267.404 252.357C268.194 252.357 270.099 252.497 271.725 252.682C273.305 252.914 274.606 253.147 274.606 253.286C274.606 253.425 272.655 253.704 270.331 253.889C267.962 254.075 265.499 254.493 264.895 254.818C264.244 255.143 262.665 256.86 261.41 258.671C260.109 260.528 258.436 263.034 257.647 264.241C256.485 266.191 256.253 266.377 256.16 265.495C256.067 264.845 256.857 263.127 257.972 261.317C259.04 259.553 260.667 257.139 261.503 255.885Z" fill="#5AB9BC"/>
<path d="M314.426 226.362C314.333 225.48 314.101 224.365 313.869 223.948V223.901C313.636 223.483 313.683 223.112 313.915 223.112C314.147 223.066 314.751 223.53 315.263 224.041C316.053 224.876 316.145 225.387 315.867 227.197C315.634 228.636 315.123 229.75 314.333 230.539C313.683 231.189 311.964 232.35 310.523 233.093C309.083 233.835 307.457 235.089 306.945 235.785C306.248 236.714 305.877 238.153 305.691 240.659C305.505 242.795 305.04 244.977 304.483 246.091C303.972 247.112 302.717 248.644 301.741 249.526C300.719 250.408 299.093 251.475 298.071 251.94C297.048 252.404 294.772 253.007 292.96 253.332C291.147 253.657 286.362 253.936 282.319 253.936C276.79 253.982 274.885 253.843 274.745 253.379C274.653 252.961 275.954 252.822 280.275 252.822C283.434 252.822 287.988 252.59 290.404 252.357C293.192 252.033 295.655 251.475 297.141 250.779C298.396 250.222 300.162 249.108 301.044 248.365C301.881 247.623 302.949 246.369 303.321 245.626C303.693 244.884 304.158 242.516 304.297 240.427C304.529 237.642 304.808 236.296 305.551 235.321C306.063 234.625 307.642 233.232 309.036 232.304C310.43 231.375 312.242 229.982 313.079 229.286C314.426 228.172 314.612 227.754 314.426 226.362Z" fill="#5AB9BC"/>
<path d="M307.735 197.116C307.875 195.956 308.247 194.47 308.525 193.774V193.727C308.851 193.031 309.129 192.474 309.176 192.474C309.222 192.474 309.269 195.12 309.269 198.37C309.315 203.569 309.222 204.172 308.665 203.383C308.339 202.872 307.921 201.712 307.735 200.83C307.596 199.948 307.596 198.277 307.735 197.116Z" fill="#32C8CE"/>
<path d="M309.547 193.031C309.455 192.613 309.78 191.871 310.198 191.453V191.406C310.616 190.989 311.406 190.617 311.917 190.617C312.707 190.617 312.614 190.849 311.267 192.242C309.966 193.542 309.64 193.681 309.547 193.031Z" fill="#5AB9BC"/>
<path d="M304.018 179.244C303.414 179.105 302.949 178.826 302.949 178.548C302.949 178.269 303.786 178.083 304.808 178.083C306.156 178.083 306.667 178.269 306.667 178.78C306.667 179.151 306.295 179.476 305.877 179.476C305.412 179.476 304.576 179.383 304.018 179.244Z" fill="#8DC8CA"/>
<path d="M298.117 179.198C297.141 178.873 296.77 178.455 296.723 177.712C296.677 176.83 296.863 176.691 297.838 176.923C298.489 177.109 299.511 177.573 300.162 177.944C301.277 178.687 301.277 178.733 300.394 179.151C299.836 179.383 298.907 179.43 298.117 179.198Z" fill="#32C8CE"/>
<path d="M296.63 178.176C296.398 178.362 295.562 178.13 294.818 177.619L293.424 176.691H294.911C295.747 176.691 296.584 176.969 296.723 177.294C296.863 177.573 296.816 177.991 296.63 178.176Z" fill="#32C8CE"/>
<path d="M300.998 156.219C300.952 155.569 301.091 154.873 301.323 154.734C301.556 154.548 301.881 154.409 302.113 154.409C302.299 154.409 302.485 154.78 302.485 155.244C302.531 155.662 302.206 156.358 301.788 156.73C301.137 157.333 301.044 157.287 300.998 156.219Z" fill="#5AB9BC"/>
<path d="M284.317 95.6858C284.131 95.1751 283.945 94.386 283.945 93.9682V93.9218C283.899 93.504 284.038 93.1326 284.224 93.1326C284.457 93.0862 284.875 93.4111 285.154 93.8289C285.618 94.3395 285.618 94.7573 285.2 95.5465C284.689 96.5678 284.689 96.5678 284.317 95.6858Z" fill="#48519A"/>
<path fill-rule="evenodd" clip-rule="evenodd" d="M138.139 0.104448C139.487 0.243712 141.671 0.429397 142.972 0.522239C144.319 0.661503 145.434 0.986452 145.434 1.21856C145.434 1.45066 144.366 1.68277 143.111 1.68277C141.113 1.68277 140.788 1.82203 140.788 2.6112C140.788 3.44678 140.974 3.4932 142.925 3.21467C145.016 2.8433 145.063 2.88972 144.923 4.00383C144.737 5.11794 144.644 5.16436 140.323 5.25721C137.907 5.35005 135.073 5.48931 134.05 5.62858C133.028 5.76784 131.774 6.13921 131.263 6.51058C130.38 7.06764 130.473 7.16048 132.657 7.90322C133.911 8.32101 136.374 8.83164 138.139 9.01733C140.463 9.24943 141.253 9.52796 141.253 10.0386C141.253 10.6421 140.37 10.7349 136.002 10.6885C131.077 10.5957 130.798 10.5492 130.659 9.62081C130.612 9.01733 129.915 8.32101 128.939 7.81038C128.01 7.39259 127.313 6.88195 127.313 6.64984C127.313 6.46416 127.499 6.41774 127.778 6.557C128.057 6.69627 128.707 6.27847 129.265 5.675C129.869 5.11794 131.17 4.3752 132.192 4.05025C133.214 3.77173 135.212 3.40036 136.606 3.26109C138.232 3.07541 138.883 2.8433 138.465 2.6112C138.093 2.42551 135.63 2.37909 128.289 2.75046L126.988 4.56089C126.291 5.58216 124.758 7.02121 123.596 7.76395C122.434 8.50669 120.576 9.43512 119.414 9.76007C118.253 10.1314 116.766 10.5492 116.022 10.6885C115.325 10.8278 114.768 11.292 114.768 11.6633C114.768 12.0347 114.396 12.4525 113.931 12.5918C113.513 12.731 112.909 12.6382 112.677 12.4061C112.351 12.0811 111.283 12.4525 109.424 13.5202C107.891 14.3558 106.218 15.1449 105.707 15.1914C105.196 15.2842 102.594 15.0521 99.899 14.7271C97.204 14.4022 94.1374 14.2629 93.0222 14.4022C91.9535 14.5415 91.0707 14.9128 91.0707 15.1449C91.0707 15.377 91.9071 16.1198 92.9293 16.7697C94.0909 17.5124 94.7879 18.2552 94.7879 18.8586C94.7879 19.3693 94.3697 20.437 93.8586 21.1797C93.2545 22.1081 93.0222 22.9901 93.1616 23.8257C93.3475 24.7077 93.1616 25.404 92.5576 26.0539C92.0929 26.5646 91.4424 27.8644 91.1636 28.932C90.8384 30.0462 89.6767 32.1351 88.6081 33.5742C87.4929 35.0597 85.6808 37.8449 82.5677 43.2298L82.8929 46.7114C83.0788 48.6147 83.6363 51.8641 84.1475 53.9067C84.6586 55.9492 85.0303 58.3631 84.9374 59.2915C84.8444 60.22 85.0303 61.2412 85.3091 61.6126C85.6343 61.984 86.006 63.0052 86.1919 63.8873C86.3313 64.7693 87.3071 68.1116 88.3293 71.3147C89.305 74.5177 90.1414 77.5351 90.1414 78.0457C90.0949 78.9277 90.1414 78.9277 90.9313 78.1386C91.3959 77.6744 92.2788 77.3958 92.9293 77.4423C93.7192 77.5351 95.5778 79.1134 98.505 82.2236C101.665 85.566 103.059 87.4228 103.43 88.7226C103.848 90.2081 103.802 90.9508 103.198 92.4827C102.455 94.386 102.455 94.4324 103.941 97.357C105.335 100.049 105.754 100.467 108.309 101.721C109.842 102.51 111.376 103.392 111.655 103.763C111.98 104.134 112.259 104.97 112.305 105.62C112.351 106.363 111.887 107.384 111.004 108.312C110.261 109.148 109.657 110.169 109.657 110.541C109.657 110.912 110.028 111.98 110.446 112.862C110.911 113.79 111.422 114.486 111.608 114.486C111.84 114.486 112.444 113.604 113.002 112.537C113.606 111.423 114.489 110.494 115 110.401C115.511 110.309 116.812 110.68 117.927 111.283C119.461 112.165 120.065 112.305 120.715 111.887C121.133 111.608 122.434 110.076 123.596 108.498C124.758 106.873 126.244 105.249 126.988 104.831C127.964 104.227 128.428 104.181 129.079 104.552C129.497 104.831 130.147 105.574 130.426 106.177C130.844 106.966 130.891 107.941 130.566 109.612C130.287 111.005 129.683 112.397 128.986 113.094C128.382 113.744 126.756 114.858 125.362 115.601C124.014 116.343 122.063 117.689 121.04 118.525C120.018 119.407 117.927 120.475 116.394 120.985C114.861 121.45 112.026 122.424 110.121 123.167C108.216 123.91 105.568 125.256 104.313 126.138C103.012 127.067 101.85 128.227 101.618 128.691C101.432 129.248 101.525 129.991 101.99 130.595C102.362 131.198 103.012 131.662 103.384 131.662C103.756 131.662 104.964 130.734 106.032 129.573C107.147 128.459 109.192 127.02 110.586 126.417C111.98 125.767 113.653 124.699 114.303 124.049C115.046 123.214 115.929 122.842 116.859 122.842C117.602 122.842 118.996 123.353 119.879 123.91C120.762 124.513 122.76 125.813 124.246 126.834C125.78 127.809 127.267 129.063 127.638 129.573C128.196 130.362 128.196 130.827 127.685 132.498C127.174 134.076 127.174 134.54 127.685 135.051C128.01 135.33 128.242 136.397 128.242 137.326C128.242 138.393 127.638 140.343 126.709 142.107C125.718 144.119 124.835 145.279 124.061 145.589C123.41 145.821 122.574 146.285 122.109 146.61C121.691 146.935 121.133 147.77 120.855 148.467C120.576 149.21 119.879 149.952 119.275 150.184C118.717 150.416 117.091 150.834 115.697 151.113C114.303 151.391 112.026 152.273 110.679 153.016C108.448 154.316 108.309 154.502 108.82 155.337C109.145 155.894 109.935 156.405 110.586 156.59C111.236 156.73 113.095 156.544 114.768 156.219C117.091 155.755 118.113 155.244 119.089 154.177C120.25 152.923 120.669 152.784 123.271 152.784C125.687 152.738 126.57 152.505 128.568 151.252C129.915 150.416 131.402 149.813 131.82 149.859C132.285 149.952 132.842 150.509 133.075 151.159C133.307 151.809 133.354 152.83 133.168 153.48C133.028 154.13 132.424 155.151 131.913 155.801C131.077 156.776 130.473 156.962 127.824 157.055C126.151 157.148 123.968 157.194 122.992 157.194C122.063 157.194 121.087 157.473 120.855 157.751C120.529 158.215 121.412 158.355 129.404 158.355L129.497 159.608C129.59 160.351 129.404 161.372 129.079 161.929C128.8 162.532 128.428 163.507 128.196 164.157C128.01 164.807 128.057 165.643 128.242 166.014C128.568 166.617 128.846 166.617 129.962 166.107C130.659 165.782 132.285 164.575 135.909 161.325V157.983C135.909 154.78 135.956 154.641 137.071 154.502C138 154.362 138.465 154.687 139.44 156.358C140.091 157.426 141.253 158.819 141.996 159.376C142.739 159.933 143.25 160.49 143.111 160.676C142.972 160.861 142.321 160.861 141.578 160.722C140.881 160.583 139.905 159.979 139.347 159.376C138.836 158.819 138.279 157.797 138.093 157.055C137.907 156.358 137.628 155.801 137.396 155.801C137.21 155.801 137.21 157.24 137.396 159.004C137.768 162.022 137.721 162.254 136.606 163.136C135.956 163.693 134.469 164.946 133.214 166.014C132.006 167.035 130.566 168.01 129.962 168.149C129.404 168.289 128.428 168.335 127.778 168.242C127.034 168.149 126.384 167.639 126.012 166.71C125.408 165.411 125.455 165.086 126.802 162.532C127.638 161.001 128.149 159.654 128.01 159.515C127.824 159.376 126.291 159.561 124.479 159.84C122.713 160.165 120.762 160.443 120.111 160.443C119.461 160.443 118.531 160.258 118.02 159.979C117.184 159.561 117.137 159.422 117.788 158.355C118.16 157.705 118.438 157.194 118.345 157.194C118.299 157.194 117.184 157.519 115.929 157.89C114.628 158.308 112.816 158.587 111.84 158.587C110.911 158.587 109.471 158.262 108.727 157.89C107.937 157.519 107.147 156.776 106.869 156.266C106.59 155.755 106.404 154.826 106.404 154.177C106.404 153.295 106.962 152.645 108.82 151.484C110.168 150.649 112.026 149.674 112.909 149.395C113.792 149.07 115.418 148.838 116.487 148.838C118.345 148.838 118.531 148.699 119.554 146.842C120.297 145.449 121.04 144.753 122.202 144.335C123.085 144.057 124.107 143.453 124.432 142.943C124.758 142.478 124.99 141.643 124.99 141.039C124.99 140.482 125.129 140.018 125.315 140.018C125.547 140.018 125.919 139.554 126.198 138.997C126.57 138.208 126.523 137.326 126.012 135.608C125.501 133.798 125.455 132.962 125.873 131.755C126.291 130.595 126.244 130.27 125.78 130.27C125.501 130.27 124.107 129.434 122.76 128.413C121.459 127.392 120.018 126.556 119.646 126.556C119.228 126.556 119.042 126.277 119.182 125.86C119.368 125.349 118.996 125.07 117.881 124.885C116.719 124.653 116.255 124.838 115.697 125.535C115.325 126.045 113.42 127.159 111.515 128.041C109.378 129.016 107.705 130.13 107.194 130.873C106.776 131.569 105.614 132.544 104.638 133.055C103.198 133.798 102.78 133.844 101.99 133.333C101.479 133.008 100.689 131.848 100.224 130.827C99.5273 129.063 99.4808 128.738 100.131 127.252C100.596 126.231 101.386 125.395 102.315 124.978C103.151 124.606 104.36 123.771 105.01 123.121C105.754 122.332 106.683 121.867 107.566 121.867C108.309 121.867 109.564 121.496 110.354 121.032C111.097 120.521 112.909 119.825 114.303 119.5C115.697 119.129 117.788 118.2 118.949 117.411C120.111 116.622 122.063 115.461 123.364 114.811C124.618 114.161 126.337 112.955 127.174 112.073C128.335 110.912 128.707 110.076 128.8 108.452C128.939 106.641 128.8 106.363 128.01 106.363C127.406 106.363 126.616 107.245 125.455 109.194C124.572 110.773 123.41 112.49 122.899 113.047C122.295 113.697 121.412 114.069 120.436 114.022C119.646 114.022 118.299 113.697 117.556 113.326C116.766 112.955 116.162 112.351 116.162 112.026C116.162 111.655 116.007 111.624 115.697 111.933C115.465 112.212 114.768 113.326 114.21 114.44C113.606 115.601 112.723 116.807 112.212 117.132C111.376 117.689 111.097 117.55 109.238 115.322C107.333 113.047 107.194 112.722 107.519 110.866C107.659 109.705 108.356 108.266 109.192 107.291C110.354 105.945 110.493 105.527 109.982 104.924C109.703 104.506 108.356 103.67 107.101 103.113C105.8 102.556 103.988 101.21 103.012 100.189C101.479 98.4247 101.293 97.9604 101.246 95.5465C101.246 94.1075 101.246 91.74 101.293 90.3474C101.339 87.9799 101.246 87.7014 99.9454 86.7265C99.1555 86.1695 97.7151 84.4983 96.6929 83.0128C95.7172 81.5737 94.3697 80.0418 93.6727 79.6705C93.0222 79.2991 92.3252 79.1134 92.1394 79.3455C91.9071 79.5312 92.0464 80.1811 92.3252 80.831C92.7279 81.6047 92.8209 82.8735 92.604 84.6375C92.4646 86.123 91.9071 88.2584 91.4424 89.4189C90.9313 90.5795 89.8626 92.2042 89.0727 93.0398C88.2363 93.8754 87.1677 94.5253 86.6565 94.5717C86.1454 94.5717 85.1232 94.0611 84.3798 93.504C83.6363 92.9005 82.8464 91.9257 82.6141 91.2758C82.2889 90.3474 82.4747 89.7439 83.497 88.2584C84.1939 87.2371 85.5879 84.7304 86.6101 82.6879C88.4222 79.0206 88.4222 78.9277 87.8646 76.6531C87.5394 75.3533 86.9818 73.4036 86.6101 72.2431C86.2384 71.0825 85.8666 69.4114 85.7273 68.5294C85.6343 67.6474 84.8444 65.9762 84.0081 64.8157C82.5677 62.8196 82.5212 62.5875 82.6141 58.7809C82.7535 55.81 82.5212 54.0924 81.8242 51.8177C81.2666 50.1466 80.8485 47.7327 80.8485 46.4793C80.8485 45.1795 80.6161 43.9261 80.2909 43.6012C79.8262 43.1834 80.198 42.3014 82.103 39.4233C83.404 37.4271 85.1232 35.0597 85.8666 34.1776C86.6101 33.2956 87.5394 31.9494 87.9111 31.1603C88.2828 30.3711 89.0727 28.1893 89.6303 26.286C90.2343 24.3828 91.1636 22.0153 91.8141 21.0404C92.4182 20.112 92.9293 19.0907 92.9293 18.8586C92.9293 18.5801 92.1858 18.3016 91.303 18.1623C90.3273 18.0231 89.398 17.5124 88.9798 16.8625C88.4687 16.1662 88.3757 15.4235 88.6081 14.495C88.8404 13.7523 89.305 13.0096 89.6767 12.8239C90.0485 12.6382 91.2565 12.3597 92.3252 12.174C93.4404 12.0347 96.3677 12.1276 98.8303 12.4061C101.339 12.6846 103.756 13.1024 104.174 13.3345C104.731 13.613 105.289 13.5202 105.8 13.1024C106.265 12.731 108.402 11.6169 110.586 10.5957C112.77 9.62081 115.418 8.64596 116.487 8.5067C117.602 8.32101 119.182 7.8568 119.972 7.43901C120.808 7.02121 121.923 6.3249 122.434 5.86068C122.945 5.39647 123.735 4.93226 124.154 4.83942C124.572 4.74657 125.222 3.86457 126.244 0.986452L130.798 0.661503C133.354 0.475818 135.491 0.243712 135.584 0.104448C135.677 -0.0348159 136.838 -0.0348159 138.139 0.104448V0.104448ZM89.0727 81.8987C88.6545 82.8271 87.4464 84.9625 86.4242 86.6337C85.402 88.3048 84.5656 90.0224 84.5656 90.4866C84.5656 90.9044 84.9838 91.4615 85.4949 91.74C86.006 92.0185 86.703 92.2042 86.9818 92.2042C87.3071 92.2042 88.097 91.0901 88.701 89.7903C89.305 88.4441 90.0949 86.2159 90.4666 84.9161C90.9778 82.92 90.9778 82.2236 90.4666 81.3416L89.9091 80.1811L89.0727 81.8987ZM125.873 154.455C124.758 154.734 123.317 154.826 122.76 154.687C122.156 154.548 121.366 154.687 120.994 155.012C120.576 155.337 120.297 155.755 120.297 155.941C120.297 156.126 120.762 156.033 121.366 155.755C121.923 155.476 122.853 155.384 123.457 155.523C124.014 155.662 124.618 155.616 124.711 155.337C124.85 155.059 126.059 154.966 127.638 155.151L130.287 155.384C131.727 152.134 131.774 151.623 131.356 151.623C131.03 151.67 130.147 152.18 129.358 152.784C128.614 153.434 127.034 154.177 125.873 154.455V154.455Z" fill="#33BBCF"/>
<path fill-rule="evenodd" clip-rule="evenodd" d="M146.968 0.754423C147.758 0.708001 148.78 1.03295 149.151 1.45074C149.523 1.86853 150.406 2.19348 151.103 2.14706C151.893 2.14706 153.333 2.84338 154.82 3.95749C156.168 4.97876 157.933 5.86076 158.677 5.9536C159.745 6.04645 160.117 6.37139 160.164 7.16056C160.257 7.94972 160.907 8.41393 162.951 9.20309C164.438 9.76015 166.39 10.3636 167.273 10.5029C168.388 10.6886 168.945 11.0135 169.085 11.6634C169.178 12.1741 169.642 13.1489 170.107 13.8916C170.618 14.588 170.99 15.2379 170.99 15.3771C170.99 15.5164 170.525 15.5164 169.921 15.4235C168.945 15.2379 168.945 15.2379 170.061 15.9806C170.711 16.3984 171.733 17.3732 172.384 18.116C173.034 18.8123 174.103 19.9728 174.754 20.6691C175.404 21.319 176.101 22.5724 176.24 23.408C176.426 24.1972 177.402 26.4254 178.471 28.2358C179.493 30.0927 180.655 31.7638 181.026 31.9495C181.398 32.1816 181.584 32.7387 181.444 33.2493C181.305 33.8064 181.491 34.2706 181.909 34.4098C182.281 34.5491 182.606 35.0597 182.606 35.5704C182.606 36.081 183.164 37.2879 183.861 38.2628C184.604 39.1912 185.487 40.2125 185.859 40.491C186.23 40.7695 186.881 41.8372 187.345 42.8121C187.81 43.9726 188.275 47.1293 188.554 51.3536C188.832 55.0673 189.436 59.7094 189.901 61.6591C190.691 64.955 190.83 65.2335 193.758 66.2084V64.1194C193.758 62.634 194.036 61.7519 194.687 61.1021C195.198 60.5914 196.592 59.8951 197.8 59.5237C199.055 59.1988 202.307 58.5025 205.141 58.0847C208.208 57.6205 211.879 57.3419 214.295 57.4348C217.455 57.574 218.57 57.8061 219.638 58.5953C220.475 59.2452 221.125 60.3129 221.45 61.6127C221.776 62.7268 222.287 64.6765 222.612 65.8834C223.263 68.0652 223.263 68.1117 225.214 68.0652C227.119 68.0652 227.212 68.1117 227.212 69.4579C227.212 70.7113 227.352 70.8505 228.467 70.6648C229.21 70.572 230.511 70.8041 231.394 71.1755C232.37 71.5933 233.671 71.7789 234.646 71.5933C235.669 71.454 238.828 71.8718 243.01 72.7538C246.727 73.5429 250.77 74.4714 252.071 74.8427C253.325 75.1677 256.81 76.9781 259.737 78.7886C263.826 81.3417 265.406 82.0845 266.428 81.9452C267.543 81.8059 267.915 82.038 268.844 83.5235C269.448 84.4519 271.075 85.9374 272.376 86.8194C273.723 87.7014 275.675 89.2798 276.697 90.301C278.416 92.1115 278.602 92.1579 279.16 91.4151C279.671 90.626 279.717 90.6724 279.764 91.7401C279.764 92.39 280.368 93.6433 281.111 94.5254C281.901 95.4074 282.366 96.3358 282.133 96.5215C281.947 96.7536 280.228 95.6395 278.323 94.0611C276.418 92.4828 274.699 90.9509 274.56 90.6724C274.374 90.3474 272.84 89.0477 271.075 87.7479C269.309 86.4481 266.428 84.5912 264.616 83.6164C262.804 82.6415 260.434 81.2024 259.273 80.3669C258.111 79.5777 255.974 78.2315 254.487 77.4423C253.046 76.6068 250.63 75.7712 249.143 75.4926C247.703 75.2605 244.636 74.6571 242.313 74.1928C239.99 73.6822 235.901 72.9859 233.206 72.6609C229.257 72.1503 228.095 72.1039 227.491 72.6145C226.887 73.0787 226.608 73.0787 226.004 72.6145C225.307 72.0575 225.261 72.336 225.539 75.9568C225.725 78.1386 226.143 81.8059 226.515 84.0806C226.84 86.3552 227.259 90.8581 227.444 94.0611C227.584 97.2642 227.909 100.607 228.141 101.489C228.374 102.371 228.792 106.688 229.071 111.005C229.396 115.322 229.675 119.639 229.768 120.521C229.814 121.403 230.139 122.703 230.418 123.446C230.697 124.142 230.929 125.535 230.929 126.556C230.929 127.577 231.255 129.945 231.673 131.802C232.091 133.612 232.602 138.068 232.788 141.643C233.067 146.007 233.392 148.281 233.81 148.653C234.135 148.931 235.994 149.72 237.899 150.463C239.804 151.206 242.964 152.83 244.869 154.13C246.774 155.384 249.469 157.565 250.863 159.004C252.257 160.444 254.301 162.95 255.37 164.621C256.438 166.293 257.972 169.078 258.715 170.888C259.505 172.699 260.62 175.902 261.178 178.084C262.061 181.333 262.246 183.236 262.293 188.76C262.293 194.563 262.154 196.002 261.224 198.973C260.62 200.876 259.226 204.126 258.204 206.122C257.042 208.304 254.998 211.182 253.186 213.085C251.513 214.896 248.586 217.449 246.681 218.749C244.776 220.048 241.988 221.766 240.455 222.555C238.921 223.298 235.483 224.551 232.788 225.34C230.093 226.083 227.073 226.826 226.05 226.965C225.028 227.151 221.358 227.058 217.919 226.826C214.481 226.594 209.974 225.944 207.929 225.433C205.885 224.876 203.283 224.041 200.03 222.648L197.382 225.294C195.337 227.337 194.78 227.708 195.059 226.872C195.244 226.222 196.22 224.923 199.101 222.091L196.081 220.513C194.408 219.631 192.364 218.238 191.481 217.402C190.644 216.567 189.158 214.756 188.182 213.364C187.253 211.971 185.58 209.093 184.511 207.004C183.489 204.869 182.095 201.341 181.444 199.112C180.794 196.838 180.05 192.846 179.772 190.153C179.354 186.114 179.354 184.536 179.958 181.101C180.376 178.826 181.212 175.252 181.863 173.209C182.513 171.167 183.721 168.382 184.558 166.989C185.394 165.596 187.578 163.182 189.39 161.65C191.156 160.072 194.501 157.333 196.824 155.569C200.495 152.645 200.96 152.134 200.867 150.927C200.82 150.138 200.588 145.542 200.356 140.714C200.123 135.005 199.752 131.477 199.38 130.734C198.962 129.991 198.869 128.831 199.055 127.484C199.194 126.185 198.962 123.353 198.404 120.057C197.893 117.133 197.475 113.094 197.475 111.144C197.475 109.148 197.149 105.991 196.778 104.181C196.36 102.324 195.709 98.7033 195.337 96.1501C194.919 93.5969 194.455 86.3552 193.99 68.3902L192.735 67.4153C191.62 66.5798 191.295 66.5333 190.273 67.044C189.158 67.5546 189.111 67.5546 188.925 66.1155C188.786 65.28 188.6 63.4231 188.507 62.0305C188.368 60.6378 187.903 58.6417 187.485 57.6205C186.927 56.3207 186.648 54.2317 186.602 50.8894C186.509 47.2221 186.277 45.5045 185.58 44.019C185.115 42.9049 184.511 42.1158 184.232 42.255C183.954 42.3479 183.117 41.2338 182.374 39.7019C181.63 38.17 180.84 36.963 180.608 36.963C180.422 36.963 180.19 37.1951 180.05 37.4272C179.911 37.6593 179.632 37.8914 179.354 37.8914C179.075 37.8914 179.214 37.3808 179.586 36.7309C179.958 36.081 180.283 35.2454 180.283 34.874C180.283 34.5027 179.632 32.9708 178.796 31.5317C177.96 30.0462 177.077 28.7 176.844 28.5608C176.566 28.3751 175.869 27.261 175.358 26.0076C174.8 24.7542 174.01 23.5937 173.592 23.408C173.174 23.1759 172.848 22.6188 172.848 22.1082C172.848 21.5976 172.523 20.5763 172.151 19.7871C171.78 19.0444 170.804 18.0695 170.061 17.6982C169.317 17.3268 168.434 16.4448 168.156 15.7485C167.83 15.0057 167.598 13.9381 167.551 13.3346C167.505 12.3597 167.133 12.1276 164.206 11.4777C161.511 10.8743 160.675 10.41 159.327 9.01741C158.444 8.04256 157.422 7.29982 157.05 7.2534C156.679 7.2534 155.424 6.51066 154.263 5.62865C153.101 4.70023 151.661 4.00391 151.01 4.00391C150.36 4.00391 149.105 3.49328 148.222 2.84338C147.339 2.19348 146.317 1.68285 145.992 1.68285C145.713 1.68285 145.434 1.49716 145.434 1.21864C145.434 0.986529 146.131 0.754423 146.921 0.754423H146.968ZM201.703 60.1736C199.566 60.4986 198.218 61.0092 197.103 61.9376L195.523 63.191C196.034 89.0476 196.267 93.0399 197.057 97.3106C197.568 100.235 198.032 102.695 198.079 102.695C198.172 102.742 199.566 102.51 201.238 102.138C202.911 101.813 207.093 101.164 210.531 100.792C213.97 100.374 218.895 99.9102 221.45 99.7245L226.097 99.3996C226.283 97.2642 225.725 91.183 224.982 84.5448C224.238 77.9065 223.495 72.1039 223.356 71.6861C223.216 71.2219 222.752 70.8505 222.38 70.8505C221.869 70.8505 221.497 69.69 220.939 66.3477C220.521 63.8409 219.964 61.3342 219.778 60.7771C219.499 60.0344 218.848 59.663 217.826 59.4773C217.036 59.3845 214.667 59.1988 212.622 59.0595C210.578 58.9667 207.976 59.0595 206.814 59.2916C205.653 59.5237 203.376 59.9415 201.703 60.1736ZM225.865 102.417C225.865 102.695 225.4 103.067 224.796 103.299C224.238 103.578 218.384 104.32 211.739 105.063C205.141 105.759 199.566 106.456 199.38 106.595C199.194 106.734 198.915 107.802 198.729 109.055L198.45 111.237C201.145 111.191 207.558 110.494 214.481 109.705L227.026 108.22C226.84 105.342 226.701 103.81 226.562 103.02C226.376 101.767 226.143 101.489 225.261 101.535C224.564 101.581 224.471 101.628 225.028 101.767C225.493 101.86 225.865 102.185 225.865 102.417ZM199.24 103.995C199.055 103.902 198.915 104.088 198.915 104.413C198.915 104.831 199.752 104.877 202.493 104.599C204.491 104.367 209.044 103.81 212.622 103.345C216.2 102.928 218.291 102.51 217.269 102.51C216.246 102.51 211.879 102.928 207.511 103.345C203.143 103.81 199.473 104.088 199.24 103.995ZM212.39 111.469C205.606 112.165 199.798 112.908 199.473 113.14C199.055 113.465 199.008 114.44 199.24 116.947C199.38 118.757 199.798 121.125 200.077 122.146L200.634 124.003C209.23 123.771 214.156 123.307 217.129 122.796C220.149 122.332 223.309 121.914 224.099 121.914C224.935 121.96 225.958 121.635 226.329 121.218C226.701 120.8 227.398 120.475 227.816 120.521C228.281 120.521 228.653 120.475 228.653 120.428C228.653 120.336 228.327 117.782 227.956 114.719C227.537 111.655 227.166 109.148 227.073 109.102C227.026 109.102 226.422 109.334 225.818 109.659C225.214 109.937 219.174 110.773 212.39 111.469ZM215.178 124.653C210.949 125.163 205.978 125.674 204.119 125.813L200.774 126.092V131.662C203.469 131.755 205.606 131.755 207.279 131.709C208.952 131.662 212.343 131.337 214.806 130.966C217.315 130.595 221.311 129.852 223.634 129.295C226.004 128.784 228.234 128.088 228.56 127.809C228.978 127.438 229.117 126.463 229.024 124.978C228.931 123.724 228.699 122.657 228.42 122.564C228.141 122.517 226.794 122.749 225.4 123.074C224.006 123.446 219.406 124.142 215.178 124.653ZM219.127 132.73C213.737 133.426 207.604 134.123 205.42 134.355L201.471 134.68C201.657 140.065 202.028 144.01 202.4 146.889C202.772 149.72 203.004 152.366 202.865 152.691C202.725 152.97 201.61 153.759 200.402 154.409C199.147 155.059 195.848 157.937 192.642 161.14C188.275 165.457 186.695 167.36 185.58 169.728C184.743 171.399 183.535 174.648 182.838 176.923C181.77 180.544 181.584 181.937 181.537 187.368C181.537 192.474 181.723 194.377 182.56 197.581C183.164 199.762 184.65 203.662 185.905 206.308C187.81 210.207 188.832 211.693 191.806 214.664C193.804 216.706 196.685 219.027 198.218 219.909C199.751 220.838 202.354 222.091 204.026 222.741C205.699 223.391 208.812 224.319 210.996 224.737C214.109 225.387 216.339 225.526 221.45 225.294C226.422 225.108 228.978 224.737 232.23 223.855C234.6 223.205 237.945 221.998 239.665 221.209C241.43 220.42 244.079 218.888 245.612 217.82C247.145 216.706 249.422 214.664 250.723 213.317C251.978 211.925 253.929 209.418 255.044 207.793C256.113 206.122 257.646 203.151 258.39 201.201C259.18 199.205 260.109 195.631 260.527 193.31C261.038 190.339 261.178 187.786 260.992 185.047C260.853 182.865 260.295 179.523 259.737 177.619C259.226 175.716 258.065 172.699 257.135 170.888C256.253 169.078 254.719 166.478 253.743 165.086C252.768 163.693 250.677 161.279 249.05 159.701C247.424 158.169 244.915 156.126 243.521 155.198C242.127 154.27 239.339 152.784 237.341 151.856L233.764 150.231C234.228 155.105 234.414 156.637 234.507 156.869C234.6 157.055 235.483 157.519 236.412 157.937C237.388 158.355 239.525 159.562 241.198 160.629C242.871 161.743 245.24 163.647 246.495 164.9C247.749 166.153 249.422 168.103 250.166 169.264C250.956 170.424 252.257 172.792 253.093 174.602C253.929 176.412 254.905 179.105 255.323 180.637C255.741 182.169 256.067 185.279 256.067 187.6C256.067 189.921 255.741 193.031 255.37 194.563C254.998 196.095 253.883 199.345 252.814 201.758C251.745 204.172 250.212 207.097 249.376 208.257C248.493 209.418 246.356 211.693 244.636 213.364C242.824 215.035 239.99 217.124 238.178 218.052C236.366 218.981 233.578 220.188 231.905 220.745C230.232 221.255 227.444 221.905 225.632 222.184C223.541 222.462 220.986 222.462 218.43 222.184C216.246 221.952 212.901 221.302 210.996 220.745C209.091 220.234 206.349 219.166 204.956 218.424C203.562 217.681 201.145 216.103 199.612 214.896C198.125 213.642 195.848 211.414 194.64 209.882C193.386 208.35 191.527 205.426 190.459 203.383C189.018 200.598 188.321 198.416 187.671 194.795C187.067 191.639 186.834 188.76 186.974 186.672C187.113 184.861 187.671 181.751 188.228 179.708C188.786 177.666 189.901 174.648 190.691 172.977C191.76 170.703 193.246 168.799 196.778 165.225C200.448 161.465 201.749 160.444 202.725 160.444C203.469 160.444 204.351 160.768 204.723 161.14C205.327 161.743 205.327 162.022 204.677 163.368C203.98 164.714 203.98 165.318 204.677 170.424C205.095 173.488 205.838 179.755 206.349 184.35C206.861 188.946 207.279 192.985 207.279 193.31C207.279 193.635 208.162 193.96 209.463 194.145C210.717 194.285 216.804 193.82 223.077 193.171C229.349 192.474 234.507 191.917 234.507 191.871C234.554 191.824 233.578 181.658 232.37 169.264C231.115 156.869 230 145.867 229.861 144.8C229.628 143.036 229.675 142.803 230.511 142.803C231.301 142.803 231.394 142.571 231.162 141.086C231.022 140.111 230.743 137.419 230.604 135.051C230.418 132.73 230.139 130.734 230 130.595C229.861 130.455 229.535 130.595 229.303 130.92C229.024 131.198 224.471 131.987 219.127 132.73ZM241.802 163.693C243.382 164.854 245.519 166.943 246.634 168.335C247.749 169.728 249.515 172.559 250.491 174.602C251.606 176.83 252.628 179.894 253.093 182.262C253.65 185.047 253.79 187.554 253.65 190.849C253.465 194.099 253.511 195.074 253.836 194.099C254.069 193.356 254.301 190.71 254.347 188.296C254.394 185.882 254.162 182.726 253.79 181.333C253.465 179.94 252.489 177.341 251.653 175.53C250.863 173.72 249.143 170.935 247.889 169.31C246.634 167.639 244.358 165.271 242.824 164.018C241.291 162.765 239.386 161.418 238.642 161.093C237.76 160.676 237.574 160.629 238.131 161.001C238.596 161.326 240.269 162.532 241.802 163.693ZM195.477 169.31C194.222 170.935 192.642 173.534 191.899 175.066C191.202 176.598 190.273 179.198 189.855 180.869C189.436 182.54 189.204 184.397 189.297 185.047C189.483 186.068 189.483 186.068 189.529 184.815C189.576 184.072 190.04 181.983 190.598 180.173C191.109 178.362 192.271 175.577 193.154 173.906C194.036 172.235 195.57 169.913 196.545 168.66C197.568 167.453 199.287 165.736 200.402 164.807C201.517 163.879 202.586 162.95 202.818 162.718C203.097 162.486 203.143 162.3 203.004 162.3C202.865 162.3 201.61 163.182 200.263 164.297C198.869 165.411 196.731 167.639 195.477 169.31ZM237.481 176.923C238.271 184.861 238.921 191.36 239.014 191.407C239.061 191.499 241.198 191.314 243.754 191.082C246.309 190.803 249.236 190.525 250.259 190.385L252.117 190.107C251.606 183.84 251.095 180.869 250.677 179.476C250.259 178.084 249.469 175.995 248.865 174.834C248.307 173.674 246.774 171.445 245.426 169.867C244.125 168.242 241.663 165.921 239.897 164.621C238.178 163.368 236.644 162.3 236.412 162.3C236.226 162.3 236.087 162.347 236.087 162.44C236.087 162.486 236.737 169.031 237.481 176.923ZM199.147 168.892C197.614 170.563 195.57 173.441 194.64 175.345C193.665 177.248 192.549 180.033 192.178 181.565C191.806 183.097 191.481 186.254 191.481 188.528C191.481 190.849 191.713 193.495 191.945 194.47C192.364 195.909 192.596 196.188 193.665 196.188C194.408 196.188 197.335 195.909 200.216 195.584C205.141 195.074 205.42 194.981 205.42 194.006C205.42 193.403 204.77 187.461 204.026 180.776C203.236 174.045 202.446 167.964 202.261 167.221L201.935 165.875L199.147 168.892ZM189.901 196.42C190.273 197.952 191.434 200.969 192.503 203.151C194.036 206.308 195.198 207.886 198.404 211.043C200.82 213.41 203.515 215.592 205.188 216.474C206.721 217.31 209.23 218.377 210.764 218.934C212.297 219.445 213.877 219.863 214.248 219.863C214.62 219.863 213.366 219.306 211.461 218.656C209.556 218.006 206.628 216.706 204.956 215.824C203.283 214.896 200.448 212.667 198.636 210.857C196.174 208.35 194.826 206.54 193.246 203.383C192.085 201.062 190.83 197.627 190.412 195.724C189.947 193.82 189.436 191.082 189.204 189.689C188.739 187.182 188.739 187.182 188.972 190.385C189.111 192.149 189.529 194.888 189.901 196.42ZM243.521 194.563C243.521 194.702 243.754 194.795 244.032 194.795C244.311 194.795 244.822 194.47 245.194 194.099C245.751 193.495 245.752 193.356 245.147 193.171C244.776 193.031 244.125 192.938 243.661 192.938C243.165 192.938 243.01 193.171 243.196 193.635C243.382 194.006 243.521 194.424 243.521 194.563ZM240.362 194.61C240.176 194.517 240.083 195.12 240.129 196.002C240.222 196.884 240.501 197.581 240.733 197.581C240.966 197.581 241.198 196.745 241.198 195.724C241.198 194.702 241.105 193.867 240.966 193.867C240.826 193.867 240.733 194.053 240.733 194.331C240.733 194.563 240.594 194.702 240.362 194.61ZM199.705 201.434C199.891 203.43 199.937 205.147 199.705 205.286C199.519 205.379 199.287 205.426 199.147 205.333C199.008 205.286 198.776 203.987 198.636 202.455C198.404 200.412 198.079 199.437 197.335 198.88C196.824 198.416 195.57 198.045 194.594 198.045C193.665 198.045 192.875 198.138 192.875 198.277C192.875 198.416 193.665 200.087 194.594 202.037C196.081 205.008 196.406 205.379 196.638 204.451C196.871 203.522 196.964 203.662 197.289 205.24C197.568 206.54 198.311 207.7 199.798 209.139C201.749 210.996 201.935 211.089 202.028 210.207C202.121 209.65 202.354 209.186 202.632 209.186C202.865 209.186 203.097 209.604 203.097 210.114C203.097 210.625 203.19 211.368 203.329 211.739C203.469 212.11 203.747 212.435 204.026 212.435C204.305 212.435 204.444 211.414 204.352 210.114C204.305 208.814 204.444 207.793 204.723 207.793C204.956 207.793 205.327 208.443 205.56 209.279C205.745 210.114 205.885 211.368 205.885 212.064C205.885 212.807 206.071 213.271 206.349 213.132C206.582 212.992 206.907 213.317 207.046 213.828C207.186 214.339 207.558 214.756 207.836 214.756C208.162 214.756 208.812 215.128 209.323 215.592C210.16 216.335 210.16 216.335 209.927 215.453C209.788 214.942 209.556 212.807 209.416 210.671C209.184 207.468 209.23 206.865 209.834 206.865C210.253 206.865 210.531 207.283 210.531 208.025C210.531 208.675 210.717 209.186 210.996 209.186C211.228 209.186 211.461 208.304 211.461 207.19C211.461 205.797 211.182 205.008 210.531 204.404C210.02 203.987 209.602 203.29 209.602 202.919C209.602 202.548 209.37 202.223 209.137 202.223C208.859 202.223 208.673 203.058 208.673 204.08C208.673 205.24 208.44 205.936 208.069 205.936C207.65 205.936 207.604 206.401 207.836 207.793C208.162 209.279 208.069 209.65 207.511 209.65C207.046 209.65 206.721 208.954 206.535 207.422C206.396 206.215 206.21 204.683 206.071 203.94C205.947 203.105 206.117 202.61 206.582 202.455C207.093 202.269 207.186 201.805 207 200.459C206.814 199.53 206.535 198.509 206.303 198.277C206.024 197.998 205.885 198.509 205.885 199.53C205.885 200.784 205.699 201.294 205.188 201.294C204.816 201.294 204.491 201.062 204.491 200.83C204.491 200.551 204.212 200.273 203.887 200.18C203.515 200.087 203.36 200.474 203.422 201.341C203.515 202.176 203.329 202.687 202.958 202.687C202.632 202.687 202.307 201.666 202.121 199.902C201.935 197.952 201.61 197.116 201.192 197.116C200.82 197.116 200.263 197.302 199.937 197.488C199.473 197.72 199.426 198.648 199.705 201.434ZM219.22 198.138C219.545 198.37 221.218 198.37 222.891 198.138C224.61 197.952 226.05 197.673 226.143 197.441C226.236 197.256 225.632 197.163 224.796 197.163C224.006 197.209 222.24 197.395 220.986 197.534C219.638 197.673 218.895 197.952 219.22 198.138ZM225.168 204.08C225.307 204.219 225.493 204.219 225.632 204.08C225.772 203.94 225.772 202.873 225.679 201.619C225.539 200.366 225.214 199.437 224.889 199.437C224.517 199.437 224.424 200.087 224.61 201.619C224.796 202.873 225.028 203.94 225.168 204.08ZM221.172 203.151C221.45 203.662 221.636 203.708 221.869 203.244C222.008 202.965 222.055 202.037 222.008 201.294C221.915 200.505 221.59 199.902 221.311 199.902C220.986 199.902 220.754 200.459 220.754 201.155C220.754 201.898 220.939 202.78 221.172 203.151ZM214.109 216.335C214.434 216.242 214.713 215.638 214.713 214.989C214.713 214.339 214.434 213.828 214.109 213.828C213.784 213.828 213.552 214.385 213.552 215.174C213.552 216.01 213.784 216.428 214.109 216.335Z" fill="#32C8CE"/>
<path d="M221.172 225.758C220.01 225.851 218.244 225.851 217.222 225.758C216.2 225.665 217.129 225.573 219.313 225.573C221.497 225.573 222.333 225.665 221.172 225.758Z" fill="#48519A" fill-opacity="0.5"/>
<path d="M221.404 216.845C220.846 217.031 220.707 216.706 220.754 215.36V215.313C220.754 214.385 220.893 213.921 221.032 214.292C221.172 214.663 221.59 215.128 221.915 215.313C222.287 215.545 222.519 216.242 222.519 216.938C222.473 217.681 222.38 217.866 222.287 217.402C222.194 216.938 221.822 216.706 221.404 216.845Z" fill="#3BE2E9"/>
<path d="M242.917 212.667C243.382 211.925 244.497 210.718 245.38 210.021C246.263 209.325 247.053 208.722 247.192 208.722C247.331 208.768 246.774 209.279 246.03 209.975C245.24 210.625 244.032 211.832 241.988 214.06L242.917 212.667Z" fill="#48519A" fill-opacity="0.5"/>
<path d="M196.778 209.65C196.917 209.511 196.731 209.093 196.406 208.722C195.895 208.118 195.941 208.118 196.685 208.722C197.103 209.093 197.382 209.511 197.242 209.65C197.103 209.789 197.568 210.439 198.265 211.136C199.008 211.832 199.705 212.296 199.937 212.203C200.123 212.064 200.541 212.343 200.867 212.76C201.378 213.549 201.331 213.549 200.588 212.9C200.123 212.528 199.751 212.389 199.798 212.667C199.798 212.946 199.101 212.389 198.172 211.507C197.289 210.625 196.638 209.789 196.778 209.65Z" fill="#48519A" fill-opacity="0.5"/>
<path d="M218.244 212.435C218.152 212.296 217.919 211.089 217.78 209.789V209.743C217.64 208.35 217.687 207.329 217.966 207.329C218.198 207.329 218.384 208.536 218.384 209.975C218.384 211.46 218.337 212.574 218.244 212.435Z" fill="#30CED5"/>
<path d="M240.455 210.114C239.943 210.114 239.758 209.65 239.851 208.397V208.35C239.897 206.679 239.897 206.679 240.083 208.118C240.129 208.954 240.408 209.65 240.687 209.65C240.919 209.65 241.244 209.371 241.337 209.046C241.477 208.768 241.523 209.232 241.523 210.114C241.523 210.996 241.43 211.368 241.337 210.903C241.244 210.486 240.826 210.114 240.455 210.114Z" fill="#30CED5"/>
<path d="M209.509 211.971C209.323 210.811 209.137 209.186 209.137 208.397V208.35C209.091 207.561 209.277 206.865 209.556 206.865C209.834 206.865 209.974 208.35 209.974 210.439C209.927 213.782 209.881 213.874 209.509 211.971Z" fill="#30CED5"/>
<path d="M235.065 209.418C234.879 208.397 234.693 207.097 234.693 206.54V206.493C234.646 205.936 234.832 205.472 235.111 205.472C235.39 205.472 235.576 206.726 235.529 208.35C235.483 211.136 235.436 211.182 235.065 209.418Z" fill="#30CED5"/>
<path d="M223.03 207.561C223.309 207.7 223.495 207.283 223.495 206.633C223.495 205.983 223.588 205.472 223.727 205.472C223.867 205.472 223.96 206.215 223.96 207.097C223.96 208.025 223.774 208.629 223.495 208.49C223.216 208.35 223.03 209 223.03 209.975C223.03 211.275 222.891 211.553 222.566 211.043C222.287 210.532 222.101 210.903 221.776 214.524L221.729 212.343C221.683 211.089 221.822 210.114 222.101 210.114C222.38 210.114 222.566 209.464 222.566 208.722C222.566 207.932 222.751 207.422 223.03 207.561Z" fill="#3BE2E9"/>
<path d="M231.58 208.582C231.162 208.397 230.976 207.561 231.022 206.54L231.069 204.776L231.255 206.493C231.347 207.7 231.626 208.257 232.091 208.257C232.509 208.257 232.788 208.675 232.741 209.279C232.71 209.991 232.618 210.114 232.463 209.65C232.323 209.279 231.905 208.815 231.58 208.582Z" fill="#3BE2E9"/>
<path d="M236.505 210.578C236.319 208.907 236.133 206.447 236.087 205.147V205.101C236.087 203.754 236.226 202.687 236.505 202.687C236.784 202.687 236.923 204.776 236.877 208.118C236.83 213.085 236.784 213.317 236.505 210.578Z" fill="#30CED5"/>
<path d="M207.232 209.65C206.954 209.65 206.814 208.165 206.814 206.076V206.029C206.907 202.548 206.907 202.548 207.232 204.776C207.465 206.029 207.651 207.654 207.651 208.35C207.697 209.093 207.465 209.65 207.232 209.65Z" fill="#48519A"/>
<path d="M206.117 205.472C205.838 204.08 205.792 202.78 205.978 202.594C206.164 202.362 206.442 202.223 206.535 202.223C206.675 202.223 206.721 203.522 206.675 208.025L206.117 205.472Z" fill="#30CED5"/>
<path d="M199.333 205.008C199.055 205.008 198.869 203.476 198.869 201.433V201.387C198.869 199.437 198.915 197.905 199.008 198.045C199.147 198.184 199.333 199.809 199.519 201.619C199.705 203.754 199.612 205.008 199.333 205.008Z" fill="#48519A"/>
<path d="M207.232 202.455C207 201.155 206.814 199.577 206.814 198.88V198.834C206.768 198.138 206.954 197.581 207.232 197.581C207.511 197.581 207.65 199.066 207.65 201.155C207.558 204.683 207.558 204.683 207.232 202.455Z" fill="#30CED5"/>
<path d="M212.343 204.079C212.111 202.687 211.972 200.551 211.925 199.344V199.298C211.879 198.091 212.065 197.116 212.343 197.116C212.622 197.116 212.762 198.973 212.762 201.851C212.669 206.122 212.622 206.354 212.343 204.079Z" fill="#30CED5"/>
<path d="M198.358 200.83C198.172 199.159 198.079 197.673 198.218 197.488V197.441C198.358 197.255 198.543 197.116 198.636 197.116C198.776 197.116 198.822 198.648 198.729 203.847L198.358 200.83Z" fill="#30CED5"/>
<path d="M248.725 193.031C248.911 192.753 248.772 192.381 248.493 192.289C248.168 192.149 248.261 192.056 248.725 192.056C249.143 192.01 249.84 192.474 250.909 194.099V193.031C250.909 192.474 251.095 192.01 251.374 192.01C251.606 192.01 251.792 192.753 251.838 193.635C251.838 194.517 251.606 195.259 251.374 195.259C251.141 195.259 251.048 194.888 251.188 194.424C251.42 193.774 251.327 193.774 250.63 194.563C249.98 195.306 249.887 195.352 250.166 194.656C250.305 194.238 250.166 193.681 249.887 193.403C249.562 193.171 249.097 193.078 248.865 193.31C248.632 193.495 248.586 193.356 248.725 193.031Z" fill="#48519A" fill-opacity="0.5"/>
<path d="M191.295 190.153C191.202 191.035 191.109 190.199 191.109 188.296C191.109 186.393 191.202 185.65 191.295 186.671C191.388 187.693 191.388 189.271 191.295 190.153Z" fill="#48519A" fill-opacity="0.5"/>
<path d="M187.113 189.457C187.02 190.478 186.927 189.875 186.927 188.064C186.927 186.254 187.02 185.465 187.113 186.207C187.206 186.95 187.206 188.436 187.113 189.457Z" fill="#48519A" fill-opacity="0.5"/>
<path d="M253.558 190.85C253.465 192.149 253.418 191.174 253.418 188.761C253.418 186.347 253.465 185.279 253.558 186.439C253.651 187.6 253.651 189.55 253.558 190.85Z" fill="#48519A" fill-opacity="0.5"/>
<path d="M189.158 191.313C188.972 192.149 188.832 191.035 188.832 188.528C188.786 186.068 188.925 184.722 189.158 185.279C189.343 185.789 189.483 187.043 189.483 188.064C189.483 189.085 189.343 190.571 189.158 191.313Z" fill="#48519A" fill-opacity="0.5"/>
<path d="M189.343 163.925L192.364 160.815V160.768C193.99 159.051 195.43 157.658 195.477 157.658C195.57 157.658 195.616 157.705 195.616 157.751C195.616 157.844 194.222 159.237 189.343 163.925Z" fill="#48519A" fill-opacity="0.5"/>
<path d="M200.402 128.413C200.309 127.531 200.309 126.51 200.449 126.231V126.185C200.588 125.86 201.424 125.674 204.212 125.767L202.493 125.953C200.774 126.092 200.727 126.138 200.634 128.041C200.588 129.945 200.588 129.945 200.402 128.413Z" fill="#32C8CE"/>
<path d="M227.212 118.896C226.902 119.206 226.763 118.277 226.794 116.111L226.84 112.862L227.259 115.647C227.491 117.411 227.491 118.618 227.212 118.896Z" fill="#32C8CE"/>
<path d="M226.283 117.04C226.051 115.74 225.865 114.022 225.865 113.233V113.187C225.818 112.397 226.004 111.701 226.283 111.701C226.562 111.701 226.701 113.233 226.701 115.508L226.699 115.575C226.608 119.13 226.606 119.208 226.283 117.04Z" fill="#4EB3B7"/>
<path d="M195.477 72.243C195.384 73.6356 195.337 72.6144 195.337 69.9219C195.337 67.2295 195.384 66.069 195.477 67.3688C195.57 68.6221 195.57 70.8503 195.477 72.243Z" fill="#48519A" fill-opacity="0.5"/>
<path d="M145.667 5.58206C144.97 5.39637 144.784 5.025 144.97 4.18942C145.109 3.44668 145.341 3.21457 145.667 3.44668C145.899 3.67879 146.875 4.00373 147.758 4.143C148.64 4.32868 150.313 5.11784 151.475 5.95343C152.636 6.74259 154.588 7.81028 155.889 8.32091C157.143 8.78512 159.095 9.94565 160.21 10.8741C161.279 11.8489 163.648 13.8915 165.414 15.4698C167.226 17.0945 168.806 18.3015 168.992 18.1622C169.224 18.0694 169.782 18.9514 170.293 20.1583C170.758 21.3653 172.059 23.315 173.174 24.5219C174.289 25.7753 175.172 27.1679 175.172 27.6786C175.172 28.1892 175.404 29.0712 175.683 29.6283C176.055 30.4638 176.055 30.7888 175.543 31.0209C175.079 31.253 175.265 31.6708 176.194 32.6456C176.937 33.342 177.634 34.6882 177.774 35.5702C177.96 36.5915 177.913 37.3342 177.541 37.5663C177.216 37.752 176.937 37.4735 176.752 36.87C176.612 36.2665 176.24 35.2917 175.962 34.6418C175.636 33.9919 175.032 33.1563 174.521 32.7849C174.01 32.3671 173.778 31.7636 173.964 31.2994C174.103 30.8352 173.917 29.9068 173.545 29.2105C173.174 28.4677 172.848 27.6322 172.848 27.3536C172.848 27.0287 171.455 24.9397 169.735 22.7115C168.063 20.4369 165.693 17.6516 164.531 16.3982C163.37 15.1913 162.115 14.2164 161.79 14.2164C161.511 14.2164 160.024 13.2416 158.584 12.0346C157.097 10.8741 154.96 9.48144 153.798 8.97081C152.636 8.46017 151.149 7.57817 150.453 6.97469C149.709 6.37122 148.594 5.86058 147.897 5.86058C147.154 5.86058 146.178 5.72132 145.667 5.58206Z" fill="#33BBCF"/>
<path d="M141.206 11.5242C141.16 11.3385 141.16 10.8278 141.206 10.41V10.3636C141.206 9.94583 141.485 9.57446 141.717 9.57446C141.996 9.57446 143.343 9.99225 144.737 10.5029C147.061 11.3385 147.386 11.3385 148.129 10.735C148.733 10.1779 149.337 10.0851 150.545 10.41C151.428 10.5957 152.172 11.0599 152.172 11.4313C152.172 11.8027 153.055 12.2669 154.309 12.5454C155.471 12.824 157.329 13.7988 158.398 14.6808C159.513 15.5628 161.558 17.4197 162.905 18.7194C164.299 20.0657 165.414 21.4119 165.414 21.644C165.414 21.8761 166.158 22.4796 166.994 22.8974C168.295 23.5937 168.527 23.8722 168.156 24.5221C167.83 25.172 167.923 25.3577 168.434 25.3577C168.806 25.3577 169.131 25.5898 169.131 25.8219C169.131 26.054 168.806 26.379 168.434 26.5182C168.063 26.6575 167.552 26.7503 167.273 26.7503C167.04 26.7503 166.715 26.2397 166.576 25.5898C166.39 24.5685 166.158 24.4757 164.949 24.6614C163.695 24.8935 163.602 24.8006 164.02 23.9651C164.392 23.2223 164.206 22.6653 162.998 21.0405C162.162 19.9728 161.279 18.998 161 18.8587C160.768 18.7659 159.374 17.6518 157.98 16.4448C156.586 15.1914 155.238 14.1702 154.96 14.1702C154.727 14.1702 153.24 13.706 151.707 13.0561C149.709 12.2669 148.687 12.0812 148.129 12.4062C147.572 12.6847 146.503 12.5918 144.877 12.0812C142.461 11.3849 142.414 11.3849 141.857 12.3133C141.485 12.8704 140.927 13.1953 140.556 13.0561C140.184 12.9168 139.859 12.6383 139.859 12.3597C139.859 12.0812 140.184 11.8955 140.556 11.8955C140.927 11.8955 141.206 11.7563 141.206 11.5242Z" fill="#33BBCF"/>
<path d="M168.434 29.5354C167.784 28.6534 167.273 27.7714 167.273 27.5857C167.273 27.3536 167.459 27.2144 167.737 27.2144C168.016 27.2144 168.527 27.3072 168.899 27.4465C169.364 27.5857 169.596 28.282 169.596 31.1602L168.434 29.5354Z" fill="#33BBCF"/>
<path d="M170.943 32.9242C170.061 31.578 169.642 30.4175 169.689 29.489C169.782 28.2821 169.921 28.1428 170.432 28.6535C170.758 29.0248 171.176 29.7211 171.315 30.2318C171.455 30.7424 171.966 31.6708 172.384 32.3207C172.849 32.9706 173.406 34.0847 173.592 34.8739C173.917 36.1737 173.871 36.2201 173.081 35.5702C172.616 35.1989 171.64 33.9919 170.943 32.9242Z" fill="#33BBCF"/>
<path d="M179.725 41.1409C179.307 40.2589 178.935 39.3769 178.889 39.1912C178.889 38.9591 178.982 38.8198 179.121 38.8198C179.261 38.8198 179.679 38.9591 180.097 39.1912C180.515 39.3769 181.259 40.3053 182.606 42.9977L181.584 42.9049C180.887 42.8121 180.236 42.1622 179.725 41.1409Z" fill="#33BBCF"/>
<path d="M181.352 45.1332C181.119 45.0403 180.84 44.5297 180.701 43.9726C180.469 43.3228 180.608 42.9978 181.026 42.9978C181.398 42.9978 181.816 43.462 181.956 44.0655C182.095 44.6225 182.095 45.1332 181.956 45.226C181.816 45.2724 181.537 45.226 181.352 45.1332Z" fill="#33BBCF"/>
<path d="M183.442 48.104C183.117 48.104 182.606 47.0363 182.327 45.6901L181.77 43.2297L182.885 44.5295C183.489 45.2259 184 46.2935 184 46.9434C184 47.5933 183.721 48.104 183.442 48.104Z" fill="#33BBCF"/>
<path d="M194.083 76.1889C193.99 77.7208 193.943 76.5602 193.943 73.6357C193.943 70.7112 193.99 69.4578 194.083 70.8504C194.176 72.2431 194.176 74.657 194.083 76.1889Z" fill="#48519A" fill-opacity="0.5"/>
<path d="M285.2 99.446C285.154 99.2139 285.618 98.3319 286.176 97.4963C286.78 96.6143 287.43 96.0108 287.663 96.1501C287.895 96.2894 287.941 96.7536 287.802 97.1714C287.663 97.6356 287.709 97.8677 287.941 97.682C288.127 97.4963 288.871 97.6356 289.614 98.007C290.311 98.3783 290.869 98.7961 290.869 98.9354C290.869 99.0747 290.543 99.7245 290.125 100.421C289.428 101.628 289.428 101.86 290.404 103.81C291.008 104.97 292.774 107.245 294.4 108.916C296.119 110.68 297.188 112.165 297.002 112.49C296.77 112.815 295.19 111.701 292.495 109.334C290.172 107.291 288.36 105.342 288.453 104.97C288.499 104.599 288.313 104.274 288.081 104.274C287.848 104.274 287.616 103.902 287.616 103.438C287.616 103.02 287.105 102.371 286.455 102.046C285.804 101.767 285.293 101.303 285.293 101.024C285.293 100.746 285.943 100.56 286.687 100.56C287.43 100.56 288.081 100.374 288.081 100.096C288.081 99.8174 287.477 99.6781 286.687 99.7245C285.943 99.8174 285.246 99.6781 285.2 99.446Z" fill="#74C2C4"/>
<path d="M229.396 115.183C229.303 116.204 229.21 115.554 229.21 113.79C229.21 112.026 229.303 111.144 229.396 111.933C229.489 112.722 229.489 114.161 229.396 115.183Z" fill="#33BBCF"/>
<path d="M298.814 115.322C297.745 114.069 296.909 112.862 296.956 112.629C296.956 112.351 297.467 112.49 298.071 112.954C298.675 113.419 300.208 115.275 301.556 117.04C302.903 118.85 304.715 121.682 305.552 123.446C306.434 125.163 307.642 128.366 308.293 130.641C308.897 132.869 309.733 137.511 310.152 140.946C310.802 146.192 310.849 147.956 310.384 151.855C310.105 154.409 309.64 157.38 309.408 158.494C309.176 159.561 308.804 161.836 308.525 163.6C308.246 165.596 308.246 167.732 308.525 169.635C308.804 171.213 309.501 173.488 310.105 174.695C310.709 175.948 313.218 179.476 315.681 182.633C318.143 185.743 320.56 188.992 321.071 189.782C321.675 190.756 322 192.149 322 193.495C322 195.259 321.721 196.002 320.699 197.163C320.002 197.905 318.376 199.112 317.121 199.809C315.402 200.737 314.752 201.387 314.659 202.222C314.566 202.965 315.309 204.636 316.657 206.865C318.794 210.3 318.794 210.393 318.562 213.364C318.376 215.638 317.958 216.845 317.028 218.191C316.285 219.213 314.891 220.652 313.869 221.394C312.707 222.184 310.57 223.066 308.154 223.623C305.737 224.18 304.251 224.319 304.111 224.04C303.972 223.762 304.39 223.391 305.04 223.112C305.691 222.834 306.434 222.648 306.667 222.648C306.899 222.648 308.339 222.184 309.78 221.627C311.267 221.07 313.265 219.863 314.287 218.981C315.263 218.052 316.378 216.752 316.703 216.01C317.075 215.313 317.354 214.478 317.354 214.153C317.354 213.874 316.889 214.385 316.285 215.36C315.727 216.288 315.123 217.077 314.891 217.077C314.705 217.077 314.705 216.613 314.844 216.056C315.03 215.453 315.588 214.06 317.121 210.81L315.402 207.468C314.101 205.008 313.636 203.522 313.636 199.901L316.657 198.277C318.329 197.395 320.002 196.188 320.374 195.631C320.745 195.027 321.071 193.913 321.071 193.17C321.117 192.428 320.56 190.942 319.863 189.921C319.166 188.9 317.354 186.625 315.82 184.815C314.24 183.004 311.964 179.987 310.756 178.083C309.501 176.18 308.154 173.581 307.782 172.281C307.41 171.027 307.131 169.078 307.131 168.01C307.131 166.339 306.992 166.06 306.388 166.385C305.737 166.664 305.644 166.478 305.97 164.853C306.156 163.832 306.62 162.161 306.992 161.14C307.317 160.118 307.596 158.911 307.596 158.494C307.596 158.029 307.131 157.426 306.527 157.147C305.691 156.73 305.04 156.869 303.042 157.844C300.626 159.051 300.626 159.051 301.277 158.029C301.649 157.426 302.531 156.683 303.275 156.358C303.972 155.987 305.087 155.801 305.737 155.941C306.388 156.033 307.271 156.265 307.689 156.451C308.246 156.637 308.525 156.498 308.525 156.033C308.525 155.616 308.154 155.383 307.689 155.43C307.271 155.523 306.806 155.337 306.667 155.105C306.527 154.826 306.992 154.594 307.689 154.548C308.804 154.409 309.036 154.13 309.269 152.691C309.455 151.716 309.455 148.002 309.315 144.428C309.129 140.204 308.711 136.583 308.107 134.076C307.55 131.987 306.434 128.552 305.598 126.463C304.762 124.328 303.321 121.45 302.392 120.057C301.463 118.664 299.836 116.529 298.814 115.322Z" fill="#5AB9BC"/>
<path d="M200.123 142.107C200.03 143.917 199.984 142.525 199.984 139.09C199.984 135.654 200.03 134.169 200.123 135.84C200.216 137.511 200.216 140.297 200.123 142.107Z" fill="#48519A" fill-opacity="0.5"/>
<path d="M103.059 194.145C102.966 193.727 103.663 193.31 104.778 193.031C105.8 192.753 108.123 192.567 109.982 192.613C112.537 192.706 113.606 192.938 114.628 193.681C115.325 194.238 116.208 195.166 116.58 195.77C117.184 196.745 117.184 197.163 116.487 198.973C116.069 200.134 114.861 202.083 113.745 203.337C112.63 204.59 110.4 206.493 108.727 207.607C107.055 208.675 104.917 209.928 103.988 210.3C102.64 210.857 102.222 210.903 102.222 210.485C102.222 210.161 103.198 209.325 104.406 208.629C105.614 207.979 107.891 206.493 109.424 205.333C110.958 204.219 112.909 202.269 113.745 201.016C114.582 199.716 115.232 198.137 115.279 197.348C115.279 196.513 114.861 195.584 114.257 195.027C113.467 194.284 112.63 194.099 109.935 194.099C108.123 194.099 105.846 194.238 104.917 194.47C103.57 194.702 103.105 194.656 103.059 194.145Z" fill="#FBFEFF"/>
<path d="M91.5353 198.695C93.6727 197.441 97.1111 195.77 99.1555 194.934C102.501 193.588 102.919 193.495 103.151 194.238C103.43 194.888 102.873 195.259 100.41 196.188C98.7374 196.838 95.6707 198.277 93.6262 199.391C91.5818 200.459 88.5616 202.362 86.8889 203.615C85.2161 204.822 82.5677 207.19 80.9414 208.907C79.2222 210.764 77.8283 212.714 77.4566 213.828C76.9919 215.267 76.9919 215.87 77.4566 216.845C77.7818 217.495 78.6182 218.284 79.3151 218.656C80.0586 219.027 81.8707 219.538 83.404 219.816C84.9374 220.095 87.3071 220.327 88.6081 220.327C89.9555 220.327 91.1636 220.513 91.303 220.791C91.4424 221.023 91.2565 221.441 90.9313 221.673C90.6525 221.859 89.5374 222.23 88.5151 222.416C87.4929 222.602 84.4727 223.855 81.7778 225.248C79.0828 226.594 74.6222 229.193 71.7879 231.05C68.9535 232.907 65.7939 235.367 64.6788 236.435C63.4242 237.735 62.7273 238.849 62.7273 239.592C62.7273 240.334 63.099 240.938 63.7495 241.263C64.5394 241.634 65.7475 241.588 68.5353 241.031C70.5798 240.659 73.6 239.777 75.2727 239.081C76.9454 238.431 82.4747 235.878 87.5858 233.464C92.697 231.004 98.2727 228.126 99.9919 227.012C101.85 225.805 102.966 225.294 102.687 225.758C102.455 226.222 102.362 226.733 102.455 226.919C102.594 227.151 101.479 228.079 99.9919 229.008C98.5515 229.936 93.3475 232.629 88.5151 234.996C83.6828 237.317 77.7818 240.01 75.505 240.892C73.2283 241.82 70.0687 242.748 68.5353 243.027C66.7697 243.305 65.0505 243.305 63.8889 243.027C62.8667 242.795 61.7515 242.331 61.4262 242.006C61.101 241.727 60.8222 240.892 60.8687 240.149C60.8687 239.452 61.1475 238.338 61.5192 237.596C61.8444 236.899 63.3778 235.228 64.8646 233.835C66.398 232.489 69.5111 230.215 71.7879 228.776C74.0646 227.337 77.8747 225.201 84.3333 221.859L82.4747 221.534C81.4525 221.348 79.7798 220.838 78.7576 220.327C77.7353 219.816 76.5273 218.795 76.0626 218.006C75.6444 217.263 75.2727 216.056 75.2727 215.313C75.2727 214.617 75.7838 213.132 76.3414 212.064C76.899 210.95 78.3858 208.954 79.6869 207.607C80.9414 206.308 83.2646 204.265 84.798 203.105C86.3313 201.944 89.3515 199.948 91.5353 198.695Z" fill="#FBFEFF"/>
<path d="M44.3737 202.176C51.0182 200.876 54.7354 199.902 55.9899 199.159C57.0121 198.555 58.2202 198.091 58.6384 198.045C59.103 198.045 59.5677 198.277 59.7071 198.509C59.8465 198.787 59.6142 199.298 59.2424 199.669C58.8707 200.041 57.9879 200.505 57.2445 200.691C56.4081 200.923 54.8283 202.501 52.2727 205.751C50.2283 208.35 46.0465 213.921 43.0263 218.099C39.9596 222.23 35.4061 228.451 32.897 231.839C30.3879 235.182 28.3434 238.013 28.3434 238.106C28.3899 238.153 32.2 236.574 36.8465 234.578C41.4929 232.629 47.1616 230.029 49.4849 228.868C51.8081 227.754 53.8525 226.965 54.0384 227.151C54.2243 227.336 53.9455 227.847 53.3414 228.265C52.7374 228.683 50.6 229.843 48.5556 230.865C46.5111 231.932 40.6566 234.578 26.2525 240.799L22.9071 244.373C19.9333 247.53 19.5616 247.808 19.5152 246.787C19.5152 246.044 20.1192 245.023 21.1414 244.002C22.0243 243.12 22.6748 242.331 22.5354 242.284C22.396 242.191 21.6061 242.47 20.7697 242.888C19.7475 243.398 19.1434 243.445 18.8182 243.12C18.4929 242.795 19.4687 242.145 21.8384 241.077C24.7192 239.731 25.6485 239.081 27.1818 236.992C28.204 235.599 33.0828 228.961 38.0546 222.184C42.9798 215.406 48.3232 208.304 49.8566 206.401C51.3899 204.497 52.7838 202.733 52.9697 202.455C53.1556 202.223 49.6243 202.687 45.1172 203.522C40.6101 204.404 34.5232 205.797 31.596 206.633C28.6687 207.468 24.8121 208.814 23 209.604C21.1879 210.393 19.701 211.043 19.6546 211.043C19.5616 211.043 19.5152 210.764 19.5152 210.486C19.4687 210.161 20.9091 209.232 22.6283 208.443C24.3475 207.654 27.7859 206.354 30.202 205.565C32.6182 204.776 38.9838 203.29 44.3737 202.176Z" fill="#4EB7BB"/>
<path fill-rule="evenodd" clip-rule="evenodd" d="M169.921 209.186C170.525 209.186 171.083 209.371 171.222 209.65C171.362 209.929 170.758 210.95 169.968 211.971C169.131 212.992 166.855 215.081 164.95 216.706C163.044 218.284 158.956 221.395 155.889 223.623C152.822 225.851 149.756 228.219 149.059 228.868C148.269 229.611 147.804 230.493 147.897 231.097C147.99 231.979 148.315 232.211 149.849 232.304C151.057 232.396 153.333 231.932 161 229.379L167.04 223.344C170.339 220.048 174.242 216.613 175.636 215.778C177.03 214.988 178.796 214.246 179.539 214.153C180.283 214.106 180.933 214.292 181.026 214.663C181.119 214.942 180.329 216.195 179.261 217.356C178.145 218.563 175.172 221.209 172.616 223.251C170.061 225.294 166.669 227.847 165.089 228.868C163.137 230.168 162.022 231.236 161.697 232.164C161.325 233.232 161.372 233.65 161.79 233.882C162.115 234.068 162.58 234.253 162.859 234.253C163.137 234.253 164.578 233.928 166.111 233.557C167.644 233.139 170.525 232.164 172.523 231.329C174.475 230.54 176.101 229.565 176.101 229.286C176.101 228.961 176.798 227.94 177.681 227.058C178.889 225.805 179.632 225.433 180.933 225.433C181.956 225.433 182.745 225.712 182.978 226.13C183.164 226.547 182.978 227.197 182.374 227.801C181.863 228.358 180.655 229.193 179.725 229.658C178.75 230.122 178.053 230.725 178.192 231.004C178.331 231.282 178.935 231.654 179.586 231.932C180.376 232.257 181.537 232.257 183.21 231.886C184.511 231.654 187.02 230.725 188.693 229.936C190.784 228.915 191.945 228.59 192.271 228.915C192.596 229.24 192.178 229.704 191.063 230.4C190.087 230.957 188.089 231.839 186.556 232.396C185.022 232.907 182.606 233.325 181.212 233.325C179.354 233.371 178.331 233.093 176.333 231.561L172.152 233.186C169.875 234.114 166.715 235.089 165.182 235.367C162.766 235.785 162.208 235.739 161.139 235.042C160.071 234.393 159.885 234.021 160.071 232.861C160.21 232.118 160.257 231.468 160.21 231.468C160.117 231.468 158.723 231.886 157.051 232.396C155.378 232.907 152.869 233.418 151.475 233.557C149.802 233.743 148.501 233.603 147.758 233.232C147.107 232.861 146.55 232.118 146.503 231.561C146.41 231.004 146.317 230.54 146.271 230.54C146.178 230.54 144.877 231.097 143.343 231.747C141.485 232.613 139.471 233.108 137.303 233.232C134.329 233.418 133.911 233.325 131.263 231.143L128.846 231.979C127.499 232.489 124.99 233.093 123.271 233.418C120.669 233.835 119.879 233.835 118.717 233.278C117.649 232.768 117.277 232.257 117.23 231.097C117.091 229.843 116.952 229.658 116.301 230.029C115.836 230.261 113.327 231.189 110.725 232.118C108.077 233.046 105.754 233.696 105.475 233.557C105.196 233.418 105.01 233.186 105.01 233C105.01 232.768 106.497 232.118 108.356 231.514C110.214 230.911 113.234 229.75 115 228.961C117.695 227.708 118.81 226.826 124.618 220.188L119.925 220.466C116.301 220.698 115.232 220.652 115.232 220.234C115.232 219.816 116.44 219.491 118.81 219.259C120.808 219.074 123.317 218.934 124.432 218.934C126.012 218.934 126.849 218.563 128.846 217.077C130.148 216.056 132.099 214.756 133.121 214.199C134.19 213.642 135.305 213.364 135.816 213.503C136.234 213.689 136.606 214.014 136.606 214.292C136.606 214.571 135.77 215.685 134.748 216.845C132.982 218.841 132.935 218.934 133.958 219.166C134.515 219.259 135.816 219.445 136.792 219.491C137.861 219.584 138.743 219.909 138.883 220.28C139.115 220.838 138.558 220.884 131.263 220.28L127.778 222.926C125.873 224.366 123.271 226.13 121.97 226.826C120.576 227.615 119.368 228.683 118.95 229.565C118.392 230.772 118.345 231.143 118.857 231.607C119.182 231.932 120.436 232.118 121.644 232.071C122.853 232.025 125.501 231.468 127.545 230.818C130.752 229.797 131.356 229.472 131.867 228.219C132.145 227.476 133.075 226.501 133.818 226.13C134.562 225.758 135.863 225.433 136.606 225.433C137.768 225.433 138 225.619 138 226.594C138 227.429 137.489 228.079 136.281 228.915C135.305 229.565 134.236 230.075 133.958 230.075C133.632 230.075 133.261 230.261 133.121 230.54C132.982 230.818 133.632 231.329 134.515 231.7C135.956 232.304 136.467 232.304 138.929 231.7C140.463 231.329 142.925 230.4 144.412 229.658C146.271 228.683 147.99 227.244 150.267 224.69C152.032 222.648 154.867 219.77 156.539 218.238C158.259 216.706 160.442 214.803 161.465 213.967C162.487 213.178 164.578 211.785 166.111 210.857C167.644 209.929 169.364 209.186 169.921 209.186ZM156.586 220.327L153.566 223.205C160.768 217.774 163.927 215.267 165.182 214.106C166.483 212.946 167.366 212.017 167.18 211.971C166.994 211.971 165.228 213.224 163.23 214.756C161.232 216.242 158.259 218.795 156.586 220.327ZM171.222 221.162C169.968 222.323 168.574 223.669 168.202 224.226C167.83 224.737 169.689 223.437 172.337 221.255C174.986 219.074 177.216 217.17 177.309 216.938C177.402 216.752 177.402 216.613 177.356 216.613C177.309 216.613 176.426 217.17 175.404 217.867C174.382 218.516 172.523 220.048 171.222 221.162Z" fill="#FBFEFF"/>
<path d="M94.4161 213.132C94.5091 212.667 95.9959 211.878 98.2262 211.089C100.271 210.393 101.943 209.882 101.943 209.928C101.99 210.021 101.943 210.393 101.897 210.81C101.804 211.182 100.642 211.878 99.2949 212.389C97.9939 212.853 96.3212 213.364 95.5778 213.549C94.602 213.781 94.3697 213.689 94.4161 213.132Z" fill="#33BBCF"/>
<path d="M13.1495 214.339C13.9858 213.503 15.5656 212.157 16.7272 211.46C17.8889 210.718 18.9575 210.114 19.1434 210.114C19.3757 210.114 19.5151 210.439 19.5151 210.811C19.5151 211.182 18.8181 211.925 18.0282 212.389C17.1919 212.9 15.8444 214.014 15.008 214.849C14.1717 215.685 13.0565 217.449 12.499 218.702C11.802 220.281 11.5232 221.905 11.5697 223.809C11.5697 225.712 11.9878 227.383 12.7777 229.147C13.5676 230.865 13.8 231.839 13.4747 232.164C13.1649 232.474 12.7932 232.396 12.3596 231.932C11.9878 231.561 11.2444 230.075 10.6868 228.683C10.0828 227.104 9.66461 225.062 9.66461 223.344C9.66461 221.487 9.98986 219.785 10.6404 218.238C11.1979 216.985 12.3131 215.221 13.1495 214.339Z" fill="#33BBCF"/>
<path d="M102.687 225.897C102.919 225.387 103.616 224.644 104.22 224.273H104.174C104.778 223.901 105.428 223.576 105.707 223.576C105.986 223.576 105.8 224.969 105.242 226.826C104.545 229.333 104.22 229.89 103.895 229.24C103.663 228.822 103.57 227.986 103.663 227.429C103.802 226.64 103.663 226.455 103.012 226.594C102.362 226.779 102.315 226.687 102.687 225.897Z" fill="#FBFEFF"/>
<path d="M306.202 226.826C305.83 226.594 305.459 226.083 305.459 225.665C305.366 225.155 305.877 224.969 307.41 224.969C308.525 224.969 309.455 225.155 309.455 225.433C309.455 225.712 309.036 225.897 308.525 225.897C308.014 225.897 307.596 226.222 307.596 226.594C307.596 226.965 307.457 227.29 307.271 227.29C307.038 227.29 306.574 227.058 306.202 226.826Z" fill="#5AB9BC"/>
<path d="M191.806 228.729C191.76 228.497 192.41 227.754 193.293 227.104C194.129 226.454 194.919 226.13 195.012 226.362C195.105 226.64 194.826 227.336 194.455 227.986C194.083 228.636 193.339 229.147 192.828 229.147C192.317 229.147 191.853 228.961 191.806 228.729Z" fill="#79C3C6"/>
<path fill-rule="evenodd" clip-rule="evenodd" d="M103.848 229.147C104.251 229.921 104.313 230.663 104.034 231.375C103.802 231.932 103.616 232.489 103.616 232.629C103.616 232.768 103.941 232.861 104.313 232.861C104.685 232.861 105.103 233.046 105.242 233.325C105.382 233.603 104.871 233.975 104.081 234.253C103.198 234.532 102.362 235.321 101.804 236.482C101.293 237.41 100.085 238.942 99.1091 239.87C98.1333 240.799 96.6465 241.913 95.8566 242.331C95.0202 242.748 93.5798 243.073 92.697 243.073C91.8141 243.073 90.7454 242.748 90.3737 242.377C90.002 242.006 89.6768 241.124 89.6768 240.381C89.6768 239.685 90.0949 238.71 90.699 238.153C91.303 237.596 92.3717 236.853 93.1616 236.482C93.9515 236.064 96.0424 235.321 97.8081 234.718C99.5737 234.16 101.339 233.418 101.665 233.139C101.99 232.861 102.455 231.561 102.733 230.308C103.244 228.033 103.291 228.033 103.848 229.147V229.147ZM93.0222 238.571C91.9535 239.128 91.5818 239.638 91.6747 240.381C91.7677 241.263 92 241.449 93.1616 241.356C93.9515 241.263 95.299 240.659 96.2283 240.01C97.1576 239.313 98.4121 238.06 99.1091 237.224C99.7596 236.342 100.178 235.646 99.9919 235.692C99.8061 235.692 98.505 236.157 97.1111 236.714C95.7172 237.271 93.8586 238.106 93.0222 238.524V238.571Z" fill="#33BBCF"/>
<path d="M6.50505 248.922C7.66667 248.133 10.8727 246.276 13.7071 244.837C16.4949 243.352 18.8182 242.191 18.8646 242.145C18.8646 242.145 18.9111 242.516 18.9111 242.98C18.9576 243.537 17.703 244.466 14.9616 245.998C12.7313 247.205 9.24647 249.386 7.24849 250.872C5.20404 252.311 3.11313 254.121 2.60202 254.818C1.76566 255.932 1.71919 256.164 2.32323 256.535C2.74141 256.767 3.76364 256.675 4.87879 256.35C5.90101 256.025 8.17778 254.818 9.9899 253.611C11.802 252.45 14.6364 250.176 16.3556 248.644C19.097 246.23 19.5152 245.998 19.5152 246.926C19.5152 247.576 18.6323 248.829 17.099 250.315C15.7515 251.615 13.7071 253.425 12.5455 254.354C11.3838 255.236 9.10707 256.628 7.43434 257.417C5.76162 258.207 3.90303 258.856 3.25253 258.856C2.60202 258.856 1.62626 258.531 1.06869 258.16C0.418182 257.742 0 257 0 256.303C0 255.561 0.789899 254.261 2.18384 252.775C3.43838 251.475 5.34343 249.711 6.50505 248.922Z" fill="#33BBCF"/>
</svg>
